<?xml version="1.0" standalone="no"?>
<!DOCTYPE svg PUBLIC "-//W3C//DTD SVG 20010904//EN"
 "http://www.w3.org/TR/2001/REC-SVG-20010904/DTD/svg10.dtd">
<svg version="1.0" xmlns="http://www.w3.org/2000/svg"
 width="973.000000pt" height="256.000000pt" viewBox="0 0 973.000000 256.000000"
 preserveAspectRatio="xMidYMid meet">

<g transform="translate(0.000000,256.000000) scale(0.100000,-0.100000)"
fill="#000000" stroke="none">
<path d="M5593 2405 c-89 -38 -97 -177 -13 -220 38 -20 100 -19 129 1 25 18
51 71 51 104 0 18 -6 20 -65 20 -63 0 -65 -1 -65 -25 0 -21 5 -25 31 -25 27 0
30 -2 19 -15 -17 -21 -56 -19 -80 5 -53 53 13 126 81 90 23 -13 59 3 59 26 0
15 -72 54 -100 53 -8 0 -30 -6 -47 -14z"/>
<path d="M5915 2406 c-45 -20 -67 -50 -72 -99 -10 -82 42 -137 128 -137 33 0
47 6 74 33 66 66 52 161 -29 198 -48 22 -61 23 -101 5z m91 -81 c35 -54 -18
-116 -71 -81 -17 11 -25 25 -25 46 0 58 65 82 96 35z"/>
<path d="M7390 2407 c-126 -44 -89 -237 45 -237 37 0 52 6 80 33 102 93 6 250
-125 204z m82 -74 c24 -21 23 -58 -2 -83 -24 -24 -38 -25 -68 -4 -26 18 -29
60 -5 86 20 22 51 23 75 1z"/>
<path d="M8224 2406 c-93 -41 -100 -176 -12 -222 42 -22 111 -14 143 16 65 61
50 161 -29 199 -49 24 -60 25 -102 7z m92 -81 c22 -33 11 -73 -23 -86 -36 -14
-73 11 -73 51 0 58 65 82 96 35z"/>
<path d="M6164 2348 c71 -186 67 -178 97 -178 33 0 35 3 88 139 l39 102 -35
-3 c-34 -3 -37 -6 -60 -68 -14 -36 -26 -66 -28 -68 -1 -2 -15 29 -30 67 -26
69 -28 71 -61 71 l-34 0 24 -62z"/>
<path d="M6462 2293 l3 -118 83 -3 82 -3 0 31 c0 29 -1 30 -50 30 -43 0 -50 3
-50 20 0 16 7 20 35 20 31 0 35 3 35 25 0 22 -4 25 -35 25 -24 0 -35 5 -35 15
0 11 12 15 50 15 49 0 50 1 50 30 l0 30 -85 0 -86 0 3 -117z"/>
<path d="M6722 2293 l3 -118 33 -3 c32 -3 32 -3 32 42 0 25 5 46 10 46 6 0 23
-20 38 -45 23 -39 32 -45 59 -45 18 0 33 2 33 4 0 2 -11 24 -25 48 -25 45 -25
45 -5 63 28 25 26 70 -5 100 -21 22 -33 25 -100 25 l-76 0 3 -117z m133 37 c0
-10 -12 -16 -32 -18 -28 -3 -33 0 -33 18 0 18 5 21 33 18 20 -2 32 -8 32 -18z"/>
<path d="M7010 2289 l0 -120 33 3 c32 3 32 4 35 61 l3 59 47 -62 c38 -50 51
-60 72 -58 25 3 25 3 28 121 l3 117 -36 0 -35 0 0 -62 0 -62 -46 62 c-38 51
-51 62 -75 62 l-29 0 0 -121z"/>
<path d="M7862 2294 l3 -119 57 -3 c71 -4 121 16 148 60 29 46 21 101 -19 142
-29 28 -37 31 -111 35 l-81 3 3 -118z m136 40 c24 -17 30 -62 10 -82 -7 -7
-27 -12 -45 -12 l-33 0 0 55 c0 51 2 55 23 55 12 0 33 -7 45 -16z"/>
<path d="M1836 1934 c-14 -37 15 -40 34 -3 9 16 7 19 -9 19 -10 0 -22 -7 -25
-16z"/>
<path d="M4872 1902 l-42 -3 2 -621 3 -620 120 4 c106 3 126 6 175 30 87 43
135 90 177 175 34 70 37 82 37 163 0 81 -3 93 -37 163 -58 118 -160 192 -283
204 l-57 6 50 19 c100 37 163 127 163 233 0 95 -51 179 -133 221 -35 19 -114
30 -175 26z"/>
<path d="M5380 1900 c-18 -4 7 -47 222 -378 l243 -373 45 6 c128 19 235 97
292 213 30 61 33 74 33 162 0 81 -4 103 -27 152 -49 106 -163 197 -265 214
-49 7 -513 11 -543 4z"/>
<path d="M7640 1902 l-25 -3 2 -222 2 -222 231 -3 230 -3 0 228 0 228 -208 0
c-114 0 -218 -1 -232 -3z"/>
<path d="M160 1754 c0 -114 2 -125 18 -122 14 3 18 17 22 83 l5 80 30 -55 c17
-30 37 -56 45 -58 10 -2 26 18 45 53 17 30 33 55 38 55 4 0 7 -36 7 -81 0 -68
2 -80 16 -77 13 2 16 22 16 123 0 109 -2 120 -19 123 -14 2 -28 -15 -56 -68
-21 -38 -41 -70 -45 -70 -4 0 -24 32 -45 70 -27 50 -43 70 -57 70 -19 0 -20
-7 -20 -126z"/>
<path d="M530 1754 c0 -114 2 -125 18 -122 15 3 17 18 20 126 2 117 2 122 -18
122 -19 0 -20 -6 -20 -126z"/>
<path d="M692 1758 c3 -107 5 -123 20 -126 15 -3 18 8 20 84 l3 86 68 -86 c38
-47 75 -86 83 -86 11 0 14 23 14 125 0 118 -1 125 -20 125 -17 0 -20 -8 -22
-85 l-3 -85 -65 85 c-38 49 -72 85 -83 85 -16 0 -17 -11 -15 -122z"/>
<path d="M1030 1756 c0 -105 2 -126 15 -126 12 0 15 19 15 115 0 63 0 118 1
123 0 4 -7 8 -15 10 -14 3 -16 -14 -16 -122z"/>
<path d="M1205 1855 c-48 -47 -27 -92 53 -116 48 -14 67 -32 58 -55 -5 -12
-16 -15 -49 -11 -23 2 -52 8 -63 12 -15 4 -23 2 -27 -9 -9 -23 29 -40 89 -40
61 -1 94 22 94 64 0 33 -26 58 -76 72 -22 5 -45 15 -51 20 -40 32 17 67 72 44
29 -13 34 -12 39 1 8 21 9 20 -25 32 -51 18 -88 13 -114 -14z"/>
<path d="M1450 1860 c0 -17 7 -20 40 -20 l40 0 0 -106 c0 -95 2 -105 18 -102
15 3 17 17 20 105 l3 102 37 3 c26 2 38 8 40 21 3 15 -7 17 -97 17 -94 0 -101
-1 -101 -20z"/>
<path d="M1752 1758 l3 -123 83 -3 c77 -3 82 -2 82 18 0 18 -6 20 -65 20 l-65
0 0 35 0 35 55 0 c41 0 55 4 55 14 0 11 -15 16 -52 18 -52 3 -53 4 -56 35 l-3
32 63 3 c50 2 63 6 66 21 3 15 -6 17 -83 17 l-86 0 3 -122z"/>
<path d="M2030 1755 c0 -115 2 -126 18 -123 12 2 18 15 20 46 3 38 6 42 30 42
21 0 33 -9 54 -45 19 -31 34 -45 49 -45 21 0 20 1 -6 45 l-26 45 20 27 c26 32
27 74 2 104 -16 19 -30 24 -90 27 l-71 4 0 -127z m136 58 c10 -38 -7 -58 -55
-61 l-41 -3 0 45 0 46 45 0 c40 0 45 -3 51 -27z"/>
<path d="M2330 1755 c0 -113 2 -126 17 -123 15 3 17 19 17 123 0 105 -2 120
-17 123 -15 3 -17 -9 -17 -123z"/>
<path d="M2532 1860 c-88 -55 -71 -192 28 -221 68 -20 132 22 146 97 18 99
-90 177 -174 124z m114 -41 c29 -32 26 -105 -5 -130 -43 -35 -99 -21 -121 30
-24 59 14 121 73 121 22 0 41 -8 53 -21z"/>
<path d="M2972 1758 l3 -123 40 -3 c122 -10 197 82 149 183 -21 46 -62 65
-139 65 l-56 0 3 -122z m147 56 c49 -62 10 -144 -69 -144 l-40 0 0 85 0 85 44
0 c36 0 48 -5 65 -26z"/>
<path d="M3329 1863 c-66 -41 -79 -129 -28 -187 95 -109 251 14 184 144 -28
55 -104 76 -156 43z m111 -45 c28 -30 27 -94 -2 -125 -48 -51 -128 -12 -128
62 0 74 82 114 130 63z"/>
<path d="M1350 1370 c0 -28 3 -30 35 -30 l35 0 0 -90 0 -90 35 0 35 0 0 90 0
90 35 0 c32 0 35 2 35 30 l0 30 -105 0 -105 0 0 -30z"/>
<path d="M1630 1280 l0 -120 30 0 c28 0 30 3 30 35 0 25 4 35 15 35 9 0 25
-16 36 -35 17 -29 27 -35 55 -35 40 0 40 2 13 46 -19 31 -19 35 -5 56 24 34
20 85 -9 113 -21 22 -33 25 -95 25 l-70 0 0 -120z m120 35 c0 -21 -5 -25 -30
-25 -25 0 -30 4 -30 25 0 21 5 25 30 25 25 0 30 -4 30 -25z"/>
<path d="M1955 1387 c-3 -7 -20 -61 -39 -120 l-34 -107 33 0 c25 0 35 5 40 20
5 15 15 20 40 20 25 0 35 -5 40 -20 5 -15 15 -20 42 -20 23 0 33 4 30 13 -3 6
-20 60 -38 120 l-34 107 -38 0 c-21 0 -40 -6 -42 -13z m55 -106 c7 -27 6 -31
-11 -31 -20 0 -23 10 -13 48 8 27 12 25 24 -17z"/>
<path d="M2170 1280 l0 -120 88 0 c73 0 92 3 105 18 23 25 21 68 -2 89 -17 14
-17 18 -5 30 20 20 17 67 -4 86 -14 13 -38 17 -100 17 l-82 0 0 -120z m135 45
c0 -5 -15 -11 -32 -13 -25 -3 -33 1 -33 13 0 12 8 16 33 13 17 -2 32 -7 32
-13z m5 -95 c0 -16 -7 -20 -35 -20 -28 0 -35 4 -35 20 0 16 7 20 35 20 28 0
35 -4 35 -20z"/>
<path d="M2475 1288 c-19 -61 -35 -115 -35 -120 0 -4 14 -8 31 -8 22 0 32 5
36 20 4 15 14 20 40 20 26 0 36 -5 40 -20 4 -15 14 -20 39 -20 19 0 34 3 34 7
0 4 -17 58 -37 120 l-37 113 -38 0 -37 0 -36 -112z m89 -10 c5 -24 3 -28 -15
-28 -17 0 -20 4 -15 23 3 12 6 29 6 37 0 21 16 0 24 -32z"/>
<path d="M2730 1280 l0 -120 90 0 c89 0 90 0 90 25 0 22 -4 24 -57 27 l-58 3
-3 93 -3 92 -29 0 -30 0 0 -120z"/>
<path d="M2970 1280 l0 -120 35 0 c35 0 35 0 35 45 l0 45 40 0 40 0 0 -45 c0
-45 0 -45 35 -45 l35 0 0 120 0 120 -35 0 c-35 0 -35 0 -35 -45 l0 -45 -40 0
-40 0 0 45 c0 45 0 45 -35 45 l-35 0 0 -120z"/>
<path d="M3319 1384 c-59 -38 -75 -112 -39 -172 41 -67 133 -77 190 -21 50 51
49 129 -5 179 -32 30 -109 38 -146 14z m110 -75 c32 -57 -21 -119 -74 -85 -30
20 -35 75 -9 101 23 23 66 15 83 -16z"/>
<path d="M7210 1005 l0 -345 200 0 200 0 0 345 0 345 -200 0 -200 0 0 -345z"/>
<path d="M6559 1096 c-121 -34 -232 -123 -286 -231 -29 -56 -53 -136 -53 -177
l0 -28 455 0 455 0 0 34 c0 51 -33 149 -70 206 -105 164 -316 246 -501 196z"/>
<path d="M8687 1072 c-15 -3 -17 -25 -17 -208 l0 -204 430 0 430 0 0 205 0
205 -217 0 c-120 0 -306 1 -414 3 -108 1 -203 1 -212 -1z"/>
<path d="M1240 785 l0 -126 88 3 c87 3 87 3 90 31 3 27 2 27 -52 27 -49 0 -56
2 -56 20 0 17 7 20 45 20 41 0 45 2 45 25 0 23 -4 25 -45 25 -38 0 -45 3 -45
20 0 17 7 20 50 20 49 0 50 1 50 30 l0 30 -85 0 -85 0 0 -125z"/>
<path d="M1610 785 l0 -125 85 0 85 0 0 30 c0 29 -1 30 -50 30 -43 0 -50 3
-50 20 0 17 7 20 45 20 41 0 45 2 45 25 0 23 -4 25 -45 25 -38 0 -45 3 -45 20
0 17 7 20 50 20 49 0 50 1 50 30 l0 30 -85 0 -85 0 0 -125z"/>
<path d="M1860 784 l0 -125 33 3 c31 3 32 5 37 57 l5 54 17 -36 c10 -21 25
-37 33 -37 8 0 23 16 33 37 l17 36 5 -54 c5 -52 6 -54 38 -57 l32 -3 0 125 0
126 -35 0 c-32 0 -37 -4 -64 -57 l-29 -58 -25 58 c-25 54 -28 57 -61 57 l-36
0 0 -126z"/>
<path d="M2197 903 c-3 -5 -4 -60 -3 -123 l1 -115 33 -3 c31 -3 32 -2 32 37 0
40 1 41 35 41 90 0 118 116 38 158 -24 13 -129 16 -136 5z m113 -78 c0 -20 -5
-25 -25 -25 -20 0 -25 5 -25 25 0 20 5 25 25 25 20 0 25 -5 25 -25z"/>
<path d="M2450 786 l0 -126 35 0 c34 0 35 1 35 40 0 26 4 40 13 40 7 0 23 -18
36 -40 19 -35 27 -40 57 -40 19 0 34 2 34 6 0 3 -10 23 -22 44 -22 38 -23 40
-5 70 22 36 16 79 -14 106 -15 14 -41 20 -95 22 l-74 4 0 -126z m125 39 c0
-14 -8 -21 -27 -23 -24 -3 -28 0 -28 23 0 23 4 26 28 23 19 -2 27 -9 27 -23z"/>
<path d="M2730 785 l0 -125 85 0 85 0 0 29 c0 29 -2 30 -52 33 -41 2 -54 7
-56 21 -3 14 4 17 42 17 42 0 46 2 46 24 0 22 -5 25 -42 28 -31 2 -44 8 -46
21 -3 14 5 17 52 17 56 0 56 0 56 30 l0 30 -85 0 -85 0 0 -125z"/>
<path d="M3022 890 c-41 -25 -66 -81 -57 -126 13 -73 92 -122 151 -95 16 7 24
7 24 0 0 -6 12 -9 28 -7 26 3 27 6 30 66 l3 62 -51 0 c-47 0 -50 -1 -50 -26 0
-19 4 -25 15 -20 8 3 15 1 15 -4 0 -16 -46 -23 -69 -11 -28 16 -38 58 -20 90
18 32 54 39 80 15 19 -17 21 -17 42 4 l21 22 -21 21 c-31 31 -99 36 -141 9z"/>
<path d="M3319 887 c-45 -30 -61 -63 -56 -115 11 -103 134 -146 208 -73 55 56
44 150 -23 191 -43 26 -87 25 -129 -3z m101 -57 c54 -54 -15 -145 -72 -93 -36
32 -12 113 34 113 10 0 27 -9 38 -20z"/>
<path d="M6026 818 c-8 -13 -32 -53 -55 -90 l-41 -68 116 0 116 0 -14 23 c-8
12 -34 52 -57 90 -24 37 -45 67 -47 67 -2 0 -10 -10 -18 -22z"/>
<path d="M4660 290 l0 -90 53 0 c43 0 58 5 75 23 22 23 29 76 16 112 -9 24
-58 45 -104 45 l-40 0 0 -90z m100 50 c41 -22 32 -92 -16 -110 -43 -17 -54 -4
-54 61 0 57 1 59 26 59 14 0 34 -4 44 -10z"/>
<path d="M4899 351 c-48 -48 -38 -116 22 -147 62 -32 129 13 129 86 0 30 -6
44 -31 64 -41 35 -83 34 -120 -3z m105 -20 c26 -29 18 -82 -16 -101 -25 -13
-31 -13 -55 0 -56 31 -35 120 27 120 15 0 35 -9 44 -19z"/>
<path d="M5217 373 c-4 -3 -7 -44 -7 -90 l0 -83 56 0 c40 0 54 3 51 13 -2 6
-19 12 -38 12 l-34 0 -3 78 c-3 71 -8 87 -25 70z"/>
<path d="M5426 371 c-3 -4 -19 -45 -35 -90 -25 -65 -28 -81 -15 -81 8 0 17 7
20 15 4 10 20 15 45 15 26 0 42 -5 45 -15 7 -16 34 -21 34 -6 0 5 -6 24 -13
42 -8 19 -22 55 -31 82 -16 43 -37 59 -50 38z m38 -88 c6 -20 4 -23 -18 -23
-29 0 -31 6 -15 47 11 30 19 24 33 -24z"/>
<path d="M5580 290 l0 -90 53 0 c43 0 58 5 76 24 23 24 29 64 16 104 -8 28
-60 52 -110 52 l-35 0 0 -90z m103 48 c45 -35 21 -104 -38 -110 l-30 -3 -3 63
-3 62 29 0 c15 0 36 -6 45 -12z"/>
<path d="M5821 354 c-76 -64 -2 -192 89 -154 41 17 60 46 60 91 0 29 -7 43
-31 63 -17 15 -43 26 -59 26 -16 0 -42 -11 -59 -26z m103 -23 c26 -29 18 -82
-16 -101 -40 -22 -82 2 -86 49 -6 61 62 96 102 52z"/>
<path d="M6138 374 c-5 -4 -8 -45 -8 -91 l0 -83 49 0 c64 0 79 6 96 41 36 69
0 129 -81 136 -27 3 -52 1 -56 -3z m100 -40 c25 -17 30 -60 10 -86 -7 -9 -29
-18 -48 -20 l-35 -3 -3 63 -3 62 28 0 c16 0 39 -7 51 -16z"/>
<path d="M6377 360 c-56 -44 -40 -138 26 -159 42 -14 76 -3 106 35 25 32 26
55 6 95 -27 50 -93 64 -138 29z m103 -30 c11 -11 20 -29 20 -40 0 -24 -42 -70
-63 -70 -26 0 -67 41 -67 66 0 31 33 64 65 64 14 0 34 -9 45 -20z"/>
<path d="M6690 290 c0 -73 3 -90 15 -90 10 0 15 10 15 30 0 26 4 30 28 30 57
0 85 73 40 104 -12 9 -39 16 -60 16 l-38 0 0 -90z m85 30 c0 -20 -6 -26 -27
-28 -25 -3 -28 0 -28 28 0 28 3 31 28 28 21 -2 27 -8 27 -28z"/>
<path d="M6920 373 c-74 -27 -77 -133 -4 -168 42 -20 77 -12 109 27 29 34 31
57 10 99 -21 40 -70 58 -115 42z m80 -43 c28 -28 25 -64 -6 -89 -15 -12 -32
-21 -39 -21 -24 0 -65 41 -65 66 0 31 33 64 65 64 14 0 34 -9 45 -20z"/>
<path d="M7090 374 c0 -4 12 -45 27 -91 23 -69 31 -83 48 -83 17 0 26 14 49
86 15 47 25 88 23 91 -12 12 -27 -11 -47 -73 -12 -36 -24 -64 -26 -62 -2 2
-13 32 -26 68 -13 35 -29 65 -35 68 -7 2 -13 0 -13 -4z"/>
<path d="M7317 360 c-53 -42 -43 -125 19 -155 42 -20 77 -12 109 27 29 34 31
57 10 99 -26 50 -93 64 -138 29z m103 -30 c11 -11 20 -29 20 -40 0 -24 -42
-70 -63 -70 -26 0 -67 41 -67 66 0 31 33 64 65 64 14 0 34 -9 45 -20z"/>
<path d="M7630 290 l0 -90 49 0 c58 0 87 21 76 54 -4 12 -7 38 -6 58 2 45 -26
68 -81 68 l-38 0 0 -90z m85 35 c0 -14 -8 -21 -27 -23 -24 -3 -28 0 -28 23 0
23 4 26 28 23 19 -2 27 -9 27 -23z m10 -65 c10 -16 -15 -40 -41 -40 -19 0 -24
5 -24 25 0 21 5 25 29 25 17 0 33 -5 36 -10z"/>
<path d="M7820 290 c0 -73 3 -90 15 -90 10 0 15 10 15 30 0 40 29 40 52 0 9
-17 24 -30 33 -30 15 0 14 4 -4 34 -21 33 -21 33 -1 51 26 24 25 41 -5 70 -18
18 -35 25 -65 25 l-40 0 0 -90z m89 46 c18 -22 2 -46 -30 -46 -26 0 -29 4 -29
30 0 25 4 30 24 30 13 0 29 -6 35 -14z"/>
<path d="M8049 353 c-54 -141 -57 -153 -38 -153 11 0 19 7 19 15 0 11 12 15
45 15 33 0 45 -4 45 -15 0 -8 9 -15 19 -15 17 0 16 6 -14 88 -35 95 -57 114
-76 65z m51 -80 c0 -7 -11 -13 -25 -13 -29 0 -28 -2 -14 40 l12 33 13 -24 c7
-13 13 -30 14 -36z"/>
<path d="M8220 360 c-11 -11 -20 -23 -20 -28 0 -20 33 -51 61 -57 34 -8 49
-32 28 -46 -21 -13 -36 -11 -54 7 -12 13 -19 14 -28 5 -32 -32 71 -62 108 -31
30 25 15 63 -37 88 -33 15 -46 27 -42 37 7 17 40 20 49 5 9 -15 35 -12 35 5 0
35 -69 46 -100 15z"/>
<path d="M8390 291 c0 -75 3 -91 15 -91 13 0 15 14 13 87 -2 58 -7 88 -15 91
-10 3 -13 -19 -13 -87z"/>
<path d="M8490 291 l0 -91 50 0 c28 0 50 5 50 10 0 6 -7 11 -15 11 -8 1 -19 3
-25 4 -5 1 -14 3 -20 4 -5 0 -10 33 -12 73 -2 46 -7 73 -15 76 -10 3 -13 -19
-13 -87z"/>
<path d="M8650 290 l0 -90 49 0 c28 0 53 5 56 10 6 10 0 12 -50 14 -16 1 -29
5 -27 9 1 4 2 13 2 21 0 9 12 16 32 18 46 4 49 28 4 28 -32 0 -36 3 -36 25 0
22 4 25 35 25 24 0 35 5 35 15 0 11 -12 15 -50 15 l-50 0 0 -90z"/>
<path d="M8820 291 c0 -75 3 -91 15 -91 13 0 15 14 13 87 -2 58 -7 88 -15 91
-10 3 -13 -19 -13 -87z"/>
<path d="M8917 373 c-3 -5 -5 -45 -5 -90 0 -64 4 -83 14 -83 9 0 14 11 14 30
0 41 35 41 58 0 9 -16 25 -30 34 -30 16 0 16 3 -3 34 -17 29 -18 35 -4 46 23
19 19 66 -7 84 -23 16 -93 22 -101 9z m88 -53 c0 -21 -5 -26 -32 -28 -29 -3
-33 0 -33 21 0 31 9 39 40 35 19 -2 25 -9 25 -28z"/>
<path d="M9131 354 c-81 -68 4 -198 98 -150 60 31 70 99 22 147 -37 37 -79 38
-120 3z m103 -23 c26 -29 18 -82 -16 -101 -40 -22 -82 2 -86 49 -6 61 62 96
102 52z"/>
</g>
</svg>
